<svg xmlns:dc="http://purl.org/dc/elements/1.1/" xmlns:cc="http://creativecommons.org/ns#" xmlns:rdf="http://www.w3.org/1999/02/22-rdf-syntax-ns#" xmlns:svg="http://www.w3.org/2000/svg" xmlns="http://www.w3.org/2000/svg" xmlns:sodipodi="http://sodipodi.sourceforge.net/DTD/sodipodi-0.dtd" xmlns:inkscape="http://www.inkscape.org/namespaces/inkscape" version="1.1" x="0px" y="0px" viewBox="0 0 100 125"><g transform="translate(0,-952.36218)"><path style="text-indent:0;text-transform:none;direction:ltr;block-progression:tb;baseline-shift:baseline;color:#000000;enable-background:accumulate;" d="m 50.005052,958.34763 c -13.776,0 -24.9826,11.20639 -24.9826,24.98218 0,9.83528 5.7126,18.36469 13.9941,22.44029 -16.796,4.7856 -29.1183995,20.2611 -29.1183995,38.5781 a 2.0002,2.0002 0 1 0 3.9999995,0 c 0,-19.4525 15.3253,-35.2755 34.5793,-36.0741 0.5055,0.031 1.0145,0.048 1.527601,0.048 0.513,0 1.022,-0.017 1.5274,-0.048 19.253699,0.7985 34.569395,16.6209 34.569395,36.0741 a 2.0002,2.0002 0 1 0 4,0 c 0,-18.3164 -12.315201,-33.7923 -29.108695,-38.5781 8.2817,-4.0755 13.9943,-12.60484 13.9943,-22.44029 0,-13.77579 -11.206501,-24.98218 -24.9824,-24.98218 z m 0,4 c 11.6152,0 20.9824,9.36717 20.9824,20.98218 0,11.11514 -8.5795,20.17999 -19.4962,20.93969 -0.4932,-0.018 -0.9887,-0.028 -1.4862,-0.028 -0.4975,0 -0.9928,0.01 -1.486,0.028 -10.9168,-0.7596 -19.4966,-9.82447 -19.4966,-20.93969 0,-11.61501 9.3673,-20.98218 20.9826,-20.98218 z" fill="#000000" fill-opacity="1" fill-rule="evenodd" stroke="none" marker="none" visibility="visible" display="inline" overflow="visible"/></g><text x="0" y="115" fill="#000000" font-size="5px" font-weight="bold" font-family="'Helvetica Neue', Helvetica, Arial-Unicode, Arial, Sans-serif">Created by alvianwijaya</text><text x="0" y="120" fill="#000000" font-size="5px" font-weight="bold" font-family="'Helvetica Neue', Helvetica, Arial-Unicode, Arial, Sans-serif">from the Noun Project</text></svg>